<svg width="1050" height="595" viewBox="0 0 1050 595" fill="none" xmlns="http://www.w3.org/2000/svg">
<path d="M497.09 549.99L318.9 547.71L319.43 543.14L328.04 467.75H484.53L496.04 543.14L496.92 548.85L497.09 549.99Z" fill="#3F3D56"/>
<path opacity="0.1" d="M496.92 548.85H408L318.9 547.71L319.43 543.14H496.04L496.92 548.85Z" fill="black"/>
<path d="M525.65 544.28H289.2V549.99H525.65V544.28Z" fill="#3F3D56"/>
<path d="M751.24 14.94C751.256 10.9979 749.706 7.21088 746.931 4.41124C744.155 1.6116 740.382 0.0285347 736.44 0.0100098H76.12C74.1672 0.0191807 72.2354 0.412898 70.4348 1.16867C68.6342 1.92444 67.0001 3.02747 65.6258 4.41478C64.2514 5.80209 63.1638 7.44651 62.4251 9.25415C61.6863 11.0618 61.3108 12.9972 61.32 14.95V415.21H751.24V14.94Z" fill="#3F3D56"/>
<path d="M61.32 411.21V458.09C61.32 462.015 62.8793 465.78 65.6548 468.555C68.4304 471.331 72.1948 472.89 76.12 472.89H736.44C740.365 472.89 744.13 471.331 746.905 468.555C749.681 465.78 751.24 462.015 751.24 458.09V411.21H61.32Z" fill="#3F3D56"/>
<path d="M726.11 25.13H89.88V384.94H726.11V25.13Z" fill="white"/>
<rect x="208" y="40" width="400" height="77" fill="#C62DED"/>
<rect x="208" y="122" width="160" height="4" fill="#C62DED"/>
<rect x="208" y="130" width="400" height="4" fill="#E6E6E6"/>
<rect x="208" y="138" width="400" height="4" fill="#E6E6E6"/>
<rect x="208" y="156" width="160" height="77" fill="#C62DED"/>
<rect x="208" y="270" width="160" height="77" fill="#C62DED"/>
<rect x="208" y="238" width="100" height="4" fill="#C62DED"/>
<rect x="208" y="352" width="100" height="4" fill="#C62DED"/>
<rect x="448" y="352" width="100" height="4" fill="#C62DED"/>
<rect x="448" y="238" width="100" height="4" fill="#C62DED"/>
<rect x="208" y="246" width="160" height="4" fill="#E6E6E6"/>
<rect x="208" y="362" width="160" height="4" fill="#E6E6E6"/>
<rect x="448" y="362" width="160" height="4" fill="#E6E6E6"/>
<rect x="448" y="246" width="160" height="4" fill="#E6E6E6"/>
<rect x="208" y="255" width="160" height="4" fill="#E6E6E6"/>
<rect x="208" y="369" width="160" height="4" fill="#E6E6E6"/>
<rect x="448" y="369" width="160" height="4" fill="#E6E6E6"/>
<rect x="448" y="255" width="160" height="4" fill="#E6E6E6"/>
<rect x="448" y="156" width="160" height="77" fill="#C62DED"/>
<rect x="448" y="270" width="160" height="77" fill="#C62DED"/>
<path d="M409.71 455.1C412.045 455.102 414.35 454.573 416.451 453.555C418.552 452.536 420.395 451.054 421.84 449.22V449.22C422.279 448.661 422.679 448.073 423.04 447.46L414.57 446.01L423.72 446.08C424.598 444.17 425.076 442.101 425.126 440C425.176 437.899 424.796 435.809 424.01 433.86L411.74 440.22L423.06 431.9C421.997 430.073 420.569 428.483 418.866 427.231C417.163 425.979 415.22 425.09 413.159 424.62C411.098 424.15 408.962 424.109 406.884 424.499C404.807 424.89 402.831 425.703 401.081 426.889C399.331 428.075 397.843 429.608 396.711 431.393C395.578 433.179 394.825 435.178 394.498 437.266C394.17 439.355 394.276 441.488 394.808 443.534C395.34 445.581 396.287 447.495 397.59 449.16V449.16C399.028 451.004 400.866 452.496 402.966 453.526C405.066 454.555 407.372 455.093 409.71 455.1Z" fill="#C62DED"/>
<path opacity="0.1" d="M425.13 472.89L496.22 544.28L485.31 472.89H425.13Z" fill="black"/>
<path d="M857.2 102.97H525.26C514.325 102.97 505.46 111.835 505.46 122.77V530.59C505.46 541.525 514.325 550.39 525.26 550.39H857.2C868.135 550.39 877 541.525 877 530.59V122.77C877 111.835 868.135 102.97 857.2 102.97Z" fill="#3F3D56"/>
<path d="M858 148.11H522V505.26H858V148.11Z" fill="white"/>
<rect x="714" y="320" width="120" height="100" fill="#C62DED"/>
<rect x="548" y="320" width="120" height="100" fill="#C62DED"/>
<rect x="548" y="428" width="90" height="4" fill="#C62DED"/>
<rect x="714" y="428" width="90" height="4" fill="#C62DED"/>
<rect x="549" y="274" width="150" height="4" fill="#C62DED"/>
<rect x="549" y="285" width="275" height="4" fill="#E6E6E6"/>
<rect x="549" y="295" width="275" height="4" fill="#E6E6E6"/>
<rect x="548" y="436" width="118" height="4" fill="#E6E6E6"/>
<rect x="548" y="444" width="118" height="4" fill="#E6E6E6"/>
<rect x="714" y="436" width="118" height="4" fill="#E6E6E6"/>
<rect x="714" y="444" width="118" height="4" fill="#E6E6E6"/>
<rect x="549" y="166" width="285" height="100" fill="#C62DED"/>
<path d="M691.23 541.88C698.454 541.88 704.31 536.024 704.31 528.8C704.31 521.576 698.454 515.72 691.23 515.72C684.006 515.72 678.15 521.576 678.15 528.8C678.15 536.024 684.006 541.88 691.23 541.88Z" fill="#C62DED"/>
<path d="M691.23 135.18C690.043 135.18 688.883 134.828 687.897 134.169C686.91 133.51 686.141 132.572 685.687 131.476C685.233 130.38 685.114 129.173 685.345 128.009C685.577 126.846 686.148 125.776 686.987 124.937C687.826 124.098 688.896 123.527 690.059 123.295C691.223 123.064 692.43 123.183 693.526 123.637C694.622 124.091 695.56 124.86 696.219 125.847C696.878 126.833 697.23 127.993 697.23 129.18C697.23 130.771 696.598 132.297 695.473 133.423C694.347 134.548 692.821 135.18 691.23 135.18V135.18Z" fill="white"/>
<path d="M691.23 123.59C692.328 123.588 693.402 123.912 694.316 124.52C695.23 125.129 695.943 125.995 696.365 127.009C696.786 128.023 696.898 129.139 696.685 130.217C696.471 131.294 695.944 132.284 695.168 133.061C694.392 133.838 693.403 134.368 692.326 134.583C691.249 134.798 690.133 134.688 689.118 134.269C688.104 133.849 687.236 133.137 686.626 132.224C686.016 131.312 685.69 130.238 685.69 129.14C685.69 127.67 686.273 126.26 687.312 125.219C688.351 124.179 689.76 123.593 691.23 123.59V123.59ZM691.23 122.59C689.934 122.588 688.667 122.971 687.588 123.689C686.51 124.408 685.669 125.43 685.171 126.627C684.674 127.823 684.543 129.14 684.795 130.412C685.046 131.683 685.669 132.851 686.585 133.768C687.5 134.685 688.668 135.31 689.938 135.563C691.209 135.817 692.527 135.688 693.724 135.192C694.922 134.697 695.945 133.857 696.665 132.78C697.386 131.703 697.77 130.436 697.77 129.14C697.771 128.28 697.603 127.429 697.275 126.634C696.947 125.84 696.465 125.117 695.858 124.509C695.251 123.901 694.529 123.418 693.735 123.089C692.941 122.76 692.09 122.59 691.23 122.59V122.59Z" fill="white"/>
<path d="M991.71 269.17H990.93C989.665 269.17 988.64 270.195 988.64 271.46V311.05C988.64 312.315 989.665 313.34 990.93 313.34H991.71C992.975 313.34 994 312.315 994 311.05V271.46C994 270.195 992.975 269.17 991.71 269.17Z" fill="#3F3D56"/>
<path d="M812.06 234.57H812.05C811.222 234.57 810.55 235.242 810.55 236.07V247.61C810.55 248.438 811.222 249.11 812.05 249.11H812.06C812.888 249.11 813.56 248.438 813.56 247.61V236.07C813.56 235.242 812.888 234.57 812.06 234.57Z" fill="#3F3D56"/>
<path d="M812.14 261.19H812.13C811.197 261.19 810.44 261.947 810.44 262.88V284.81C810.44 285.743 811.197 286.5 812.13 286.5H812.14C813.073 286.5 813.83 285.743 813.83 284.81V262.88C813.83 261.947 813.073 261.19 812.14 261.19Z" fill="#3F3D56"/>
<path d="M812.11 295.35H812.1C811.211 295.35 810.49 296.071 810.49 296.96V319.27C810.49 320.159 811.211 320.88 812.1 320.88H812.11C812.999 320.88 813.72 320.159 813.72 319.27V296.96C813.72 296.071 812.999 295.35 812.11 295.35Z" fill="#3F3D56"/>
<path d="M973 186.51H830.79C820.551 186.51 812.25 194.811 812.25 205.05V532.34C812.25 542.579 820.551 550.88 830.79 550.88H973C983.239 550.88 991.54 542.579 991.54 532.34V205.05C991.54 194.811 983.239 186.51 973 186.51Z" fill="#3F3D56"/>
<path d="M907.1 197.39H887.14C885.737 197.39 884.6 198.527 884.6 199.93C884.6 201.333 885.737 202.47 887.14 202.47H907.1C908.503 202.47 909.64 201.333 909.64 199.93C909.64 198.527 908.503 197.39 907.1 197.39Z" fill="#E6E8EC"/>
<path d="M916.3 202.82C917.891 202.82 919.18 201.531 919.18 199.94C919.18 198.349 917.891 197.06 916.3 197.06C914.709 197.06 913.42 198.349 913.42 199.94C913.42 201.531 914.709 202.82 916.3 202.82Z" fill="#C62DED"/>
<path d="M966.22 196.01H945.7V198.48C945.697 201.584 944.465 204.561 942.271 206.757C940.078 208.954 937.104 210.192 934 210.2H868.54C865.429 210.2 862.446 208.964 860.246 206.764C858.046 204.565 856.81 201.581 856.81 198.47V196.01H837.56C833.784 196.013 830.164 197.514 827.494 200.184C824.824 202.854 823.323 206.474 823.32 210.25V527.15C823.32 529.02 823.688 530.872 824.404 532.599C825.12 534.327 826.169 535.897 827.491 537.219C828.813 538.542 830.383 539.59 832.111 540.306C833.838 541.022 835.69 541.39 837.56 541.39H966.22C968.09 541.391 969.943 541.024 971.671 540.309C973.399 539.594 974.97 538.545 976.292 537.222C977.615 535.9 978.664 534.329 979.379 532.601C980.094 530.873 980.461 529.02 980.46 527.15V210.24C980.457 206.465 978.956 202.846 976.286 200.177C973.615 197.509 969.995 196.01 966.22 196.01V196.01Z" fill="white"/>
<rect x="839" y="234" width="125" height="61" fill="#C62DED"/>
<rect x="842" y="303" width="120" height="5" fill="#C62DED"/>
<rect x="868" y="485" width="50" height="4" fill="#C62DED"/>
<rect x="847" y="316" width="109" height="5" fill="#E6E6E6"/>
<rect x="847" y="328" width="109" height="5" fill="#E6E6E6"/>
<rect x="847" y="451" width="109" height="5" fill="#E6E6E6"/>
<rect x="847" y="461" width="109" height="5" fill="#E6E6E6"/>
<rect x="868" y="494" width="88" height="4" fill="#E6E6E6"/>
<rect x="868" y="502" width="88" height="4" fill="#E6E6E6"/>
<rect x="839" y="362" width="125" height="80" fill="#C62DED"/>
<rect x="839" y="485" width="24" height="24" fill="#C62DED"/>
</svg>
