<svg width="848" height="456" viewBox="0 0 848 456" fill="none" xmlns="http://www.w3.org/2000/svg">
<path d="M370.131 5.3234L301.858 255.874L729.848 381.476L798.121 130.925L370.131 5.3234Z" fill="#3F3D56"/>
<path d="M377.525 19.4813C379.482 19.4813 381.069 17.8344 381.069 15.8028C381.069 13.7712 379.482 12.1243 377.525 12.1243C375.567 12.1243 373.98 13.7712 373.98 15.8028C373.98 17.8344 375.567 19.4813 377.525 19.4813Z" fill="#C62DED"/>
<path d="M388.439 22.6845C390.397 22.6845 391.984 21.0375 391.984 19.0059C391.984 16.9743 390.397 15.3274 388.439 15.3274C386.482 15.3274 384.895 16.9743 384.895 19.0059C384.895 21.0375 386.482 22.6845 388.439 22.6845Z" fill="#C62DED"/>
<path d="M399.354 25.8876C401.312 25.8876 402.899 24.2407 402.899 22.2091C402.899 20.1775 401.312 18.5305 399.354 18.5305C397.396 18.5305 395.809 20.1775 395.809 22.2091C395.809 24.2407 397.396 25.8876 399.354 25.8876Z" fill="#C62DED"/>
<path d="M597.271 164.307C591.541 163.183 585.647 163.327 579.975 164.731C581.627 158.845 582.044 152.661 581.198 146.595C575.357 148.789 570.071 152.329 565.739 156.948C564.378 150.658 561.662 144.77 557.793 139.726C554.011 144.435 551.246 149.93 549.683 155.841C545.559 151.563 540.611 148.237 535.163 146.08C535.163 146.08 532.581 159.705 538.796 170.885C544.327 180.835 554.955 185.491 557.227 186.396L557.28 186.462L557.308 186.428C557.539 186.519 557.668 186.566 557.668 186.566C557.668 186.566 557.717 186.304 557.784 185.837C557.825 185.784 557.866 185.731 557.911 185.672C557.92 185.747 557.929 185.815 557.937 185.882C557.759 186.316 557.668 186.566 557.668 186.566C557.668 186.566 557.801 186.596 558.044 186.644L558.051 186.688L558.13 186.661C560.522 187.125 571.925 188.934 581.658 183.463C592.594 177.317 597.271 164.307 597.271 164.307Z" fill="#C62DED"/>
<path d="M576.06 129.504C581.15 129.504 585.276 125.222 585.276 119.94C585.276 114.658 581.15 110.376 576.06 110.376C570.97 110.376 566.844 114.658 566.844 119.94C566.844 125.222 570.97 129.504 576.06 129.504Z" fill="#C62DED"/>
<path d="M691.778 244.117L414.815 162.838L413.111 169.091L690.074 250.37L691.778 244.117Z" fill="#C62DED"/>
<path d="M480.002 215.608L432.25 201.595L418.746 251.151L466.498 265.164L480.002 215.608Z" fill="#C62DED"/>
<path d="M568.685 241.634L520.932 227.62L507.429 277.176L555.181 291.19L568.685 241.634Z" fill="#C62DED"/>
<path d="M657.367 267.659L609.615 253.646L596.112 303.202L643.864 317.215L657.367 267.659Z" fill="#C62DED"/>
<path d="M457.658 273.274L422.185 262.864L421.028 267.111L456.501 277.522L457.658 273.274Z" fill="#C62DED"/>
<path d="M546.341 299.299L510.868 288.889L509.71 293.137L545.183 303.547L546.341 299.299Z" fill="#C62DED"/>
<path d="M635.023 325.325L599.55 314.915L598.393 319.162L633.866 329.572L635.023 325.325Z" fill="#C62DED"/>
<path d="M241.921 352.836C372.947 352.836 479.164 348.761 479.164 343.734C479.164 338.707 372.947 334.631 241.921 334.631C110.896 334.631 4.67822 338.707 4.67822 343.734C4.67822 348.761 110.896 352.836 241.921 352.836Z" fill="#F2D0FB"/>
<path d="M663.385 456C765.345 456 848 451.925 848 446.897C848 441.87 765.345 437.795 663.385 437.795C561.425 437.795 478.77 441.87 478.77 446.897C478.77 451.925 561.425 456 663.385 456Z" fill="#F2D0FB"/>
<path d="M572.838 376.243H626.099V399.359H595.112V422.474H626.102V445.588H572.838V376.243ZM636.753 376.243H690.015V396.343H659.027V400.363H690.015V446.594H636.754V425.486H667.743V421.466H636.752V376.243H636.753ZM700.669 376.243H753.931V396.343H722.943V400.363H753.931V446.594H700.669V425.486H731.658V421.466H700.67V376.243H700.669Z" fill="#3F3D56"/>
<path d="M107.336 270.479H129.308V293.007H149.407V270.479H171.381V338.7H149.409V315.855H129.309V338.7H107.337V270.479H107.336ZM200.273 293.103H180.933V270.479H241.602V293.103H222.249V338.7H200.277V293.103H200.273ZM251.23 270.479H274.14L288.233 294.45L302.312 270.479H325.232V338.7H303.349V304.886L288.233 329.142H287.854L272.728 304.886V338.7H251.23V270.479ZM336.166 270.479H358.145V316.15H389.044V338.7H336.165V270.479H336.166Z" fill="#3F3D56"/>
</svg>
