<svg width="770" height="584" viewBox="0 0 770 584" fill="none" xmlns="http://www.w3.org/2000/svg">
<g clip-path="url(#clip0)">
<path d="M277.239 0.85605L587.613 159.848C590.194 161.17 592.334 163.239 593.766 165.795C595.198 168.35 595.859 171.28 595.664 174.216L577.631 446.371C577.55 447.591 577.174 448.773 576.536 449.809C575.898 450.845 575.018 451.705 573.975 452.31C572.931 452.916 571.757 453.248 570.556 453.279C569.356 453.309 568.167 453.036 567.095 452.484L249.644 287.412L265.941 7.49049C266.018 6.17558 266.414 4.90065 267.094 3.78018C267.773 2.65971 268.716 1.7288 269.836 1.07106C270.956 0.413315 272.219 0.0493327 273.511 0.0118044C274.803 -0.025724 276.084 0.264375 277.239 0.85605V0.85605Z" fill="#D0CDE1"/>
<path d="M280.812 6.40199L583.562 161.489C586.079 162.779 588.167 164.796 589.564 167.289C590.961 169.782 591.605 172.64 591.415 175.504L573.825 440.974C573.747 442.164 573.38 443.317 572.757 444.328C572.135 445.339 571.276 446.177 570.258 446.767C569.241 447.358 568.095 447.682 566.924 447.712C565.753 447.742 564.594 447.475 563.548 446.937L253.894 285.92L269.791 12.8735C269.866 11.5909 270.252 10.3472 270.915 9.2543C271.578 8.16135 272.497 7.25331 273.59 6.61172C274.682 5.97013 275.914 5.61509 277.175 5.57848C278.435 5.54188 279.685 5.82485 280.812 6.40199V6.40199Z" fill="#3F3D56"/>
<path d="M294.079 27.0012L568.514 167.583C570.796 168.752 572.688 170.581 573.954 172.841C575.221 175.1 575.804 177.691 575.632 180.287L559.688 420.928C559.616 422.007 559.284 423.051 558.719 423.968C558.155 424.884 557.377 425.644 556.454 426.179C555.532 426.715 554.494 427.009 553.432 427.036C552.371 427.062 551.319 426.821 550.372 426.333L269.679 280.376L284.09 32.8674C284.158 31.7047 284.508 30.5774 285.109 29.5867C285.71 28.596 286.543 27.7729 287.533 27.1913C288.523 26.6097 289.64 26.2879 290.783 26.2547C291.925 26.2215 293.058 26.478 294.079 27.0012V27.0012Z" fill="white"/>
<path d="M10.9047 421.329L321.675 580.794C324.567 582.276 327.76 583.045 330.997 583.041C334.235 583.037 337.426 582.259 340.314 580.769L570.214 461.86C572.909 459.113 572.533 455.043 571.671 451.987C571.252 450.508 570.683 449.077 569.971 447.719L538.642 430.93L275.241 297.026L259.504 288.513C255.338 286.265 250.699 285.081 245.984 285.062C241.27 285.042 236.622 286.188 232.438 288.402L10.8075 405.703C9.39744 406.446 8.21655 407.572 7.39549 408.956C6.57443 410.34 6.1452 411.929 6.15526 413.546C6.16533 415.164 6.61431 416.747 7.45254 418.12C8.29076 419.494 9.48554 420.604 10.9047 421.329V421.329Z" fill="#D0CDE1"/>
<path opacity="0.1" d="M10.9047 421.329L321.675 580.794C324.567 582.276 327.76 583.045 330.997 583.041C334.235 583.037 337.426 582.259 340.314 580.769L570.214 461.86C572.909 459.113 572.533 455.043 571.671 451.987L342.458 573.377C339.661 574.858 336.56 575.645 333.408 575.672C330.256 575.7 327.142 574.968 324.321 573.535L6.26614 412.087C5.96712 413.93 6.25633 415.823 7.09127 417.486C7.92622 419.15 9.26284 420.497 10.9047 421.329V421.329Z" fill="black"/>
<path opacity="0.1" d="M305.875 469.108L205.232 417.288C203.206 416.245 200.963 415.714 198.693 415.741C196.423 415.767 194.192 416.35 192.19 417.44L133.806 449.22C133.131 449.588 132.569 450.136 132.179 450.807C131.79 451.478 131.589 452.245 131.598 453.024C131.607 453.803 131.826 454.565 132.231 455.226C132.635 455.887 133.211 456.422 133.894 456.773L236.51 509.498C238.214 510.373 240.103 510.808 242.011 510.763C243.919 510.718 245.786 510.196 247.449 509.241L306.065 475.594C306.637 475.266 307.109 474.785 307.432 474.203C307.754 473.621 307.914 472.96 307.895 472.292C307.875 471.624 307.677 470.975 307.321 470.413C306.965 469.852 306.465 469.401 305.875 469.108V469.108Z" fill="black"/>
<path opacity="0.1" d="M542.906 460.441L434.604 519.064C433.358 519.738 431.971 520.098 430.56 520.112C429.149 520.127 427.755 519.796 426.496 519.147L120.498 361.479C119.636 361.035 118.912 360.355 118.408 359.515C117.903 358.675 117.638 357.709 117.643 356.725C117.647 355.74 117.92 354.776 118.431 353.941C118.942 353.106 119.672 352.432 120.538 351.995L226.297 298.661C227.891 297.857 229.646 297.442 231.425 297.449C233.203 297.455 234.956 297.883 236.544 298.698L542.858 455.949C543.265 456.158 543.607 456.476 543.848 456.87C544.089 457.263 544.218 457.717 544.223 458.181C544.228 458.644 544.108 459.1 543.876 459.499C543.643 459.898 543.308 460.224 542.906 460.441Z" fill="black"/>
<path d="M370.129 168.086L369.586 169.192L469.157 219.918L469.7 218.812L370.129 168.086Z" fill="#C62DED"/>
<path d="M370.12 182.962L369.568 184.063L469.166 235.972L469.718 234.872L370.12 182.962Z" fill="#C62DED"/>
<path d="M388.352 211.383L387.799 212.485L444.863 242.194L445.415 241.092L388.352 211.383Z" fill="#C62DED"/>
<path d="M277.44 94.626L268.644 115.939L342.879 155.641L367.889 81.0699" fill="#F2F2F2"/>
<path d="M341.168 142.565L373.962 63.9423L298.589 26.1516L266.933 102.863L341.168 142.565Z" fill="#C62DED"/>
<path d="M296.808 56.2173L296.255 57.3192L353.318 87.0275L353.871 85.9256L296.808 56.2173Z" fill="white"/>
<path d="M292.53 66.6779L291.977 67.7799L349.041 97.4882L349.593 96.3863L292.53 66.6779Z" fill="white"/>
</g>
<defs>
<clipPath id="clip0">
<rect width="770" height="583.041" fill="white"/>
</clipPath>
</defs>
</svg>
