<svg width="704" height="740" viewBox="0 0 704 740" fill="none" xmlns="http://www.w3.org/2000/svg">
<g clip-path="url(#clip0)">
<path d="M528 172.947H524.001V63.4019C524.001 55.0758 522.361 46.8313 519.175 39.139C515.989 31.4467 511.319 24.4573 505.431 18.5699C499.544 12.6825 492.554 8.01237 484.862 4.82613C477.17 1.6399 468.925 -2.62641e-05 460.599 3.15481e-10H228.513C220.187 -1.9698e-05 211.942 1.6399 204.25 4.82614C196.558 8.01238 189.568 12.6825 183.681 18.5699C177.793 24.4574 173.123 31.4467 169.937 39.139C166.751 46.8313 165.111 55.0758 165.111 63.4019V664.376C165.111 672.702 166.751 680.947 169.937 688.639C173.123 696.331 177.793 703.321 183.681 709.208C189.568 715.096 196.558 719.766 204.25 722.952C211.942 726.138 220.187 727.778 228.513 727.778H460.599C468.925 727.778 477.17 726.138 484.862 722.952C492.554 719.766 499.544 715.096 505.431 709.208C511.319 703.321 515.989 696.331 519.175 688.639C522.361 680.947 524.001 672.702 524.001 664.376V250.923H528V172.947Z" fill="#3F3D56"/>
<path d="M461.158 16.495H430.863C432.256 19.9106 432.788 23.6165 432.411 27.286C432.035 30.9556 430.762 34.4763 428.704 37.538C426.646 40.5997 423.867 43.1084 420.612 44.8431C417.356 46.5778 413.724 47.4852 410.035 47.4855H277.076C273.387 47.4852 269.755 46.5778 266.499 44.8431C263.244 43.1084 260.465 40.5997 258.407 37.538C256.35 34.4763 255.077 30.9556 254.7 27.286C254.324 23.6164 254.856 19.9106 256.249 16.4949H227.953C221.735 16.4949 215.578 17.7196 209.834 20.099C204.089 22.4785 198.87 25.9661 194.473 30.3627C190.077 34.7594 186.589 39.979 184.21 45.7235C181.83 51.468 180.605 57.6249 180.605 63.8427V663.935C180.605 670.153 181.83 676.31 184.21 682.054C186.589 687.799 190.077 693.019 194.473 697.415C198.87 701.812 204.089 705.299 209.834 707.679C215.578 710.058 221.735 711.283 227.953 711.283H461.158C467.375 711.283 473.532 710.058 479.277 707.679C485.021 705.299 490.241 701.812 494.637 697.415C499.034 693.019 502.522 687.799 504.901 682.054C507.281 676.31 508.505 670.153 508.505 663.935V63.8427C508.505 57.6249 507.281 51.468 504.901 45.7235C502.522 39.979 499.034 34.7594 494.637 30.3628C490.241 25.9661 485.021 22.4785 479.277 20.0991C473.532 17.7196 467.375 16.495 461.158 16.495V16.495Z" fill="white"/>
<path d="M378.978 177.704H296.318V185.38H378.978V177.704Z" fill="#C62DED"/>
<path d="M440.387 204.259H296.318V211.935H440.387V204.259Z" fill="#E6E6E6"/>
<path d="M440.246 230.813H296.318V238.489H440.246V230.813Z" fill="#E6E6E6"/>
<path d="M279.187 177.818H217.778V239.228H279.187V177.818Z" fill="#C62DED"/>
<path d="M378.978 338.904H296.318V346.58H378.978V338.904Z" fill="#C62DED"/>
<path d="M440.387 365.458H296.318V373.134H440.387V365.458Z" fill="#E6E6E6"/>
<path d="M440.246 392.012H296.318V399.688H440.246V392.012Z" fill="#E6E6E6"/>
<path d="M279.187 339.018H217.778V400.427H279.187V339.018Z" fill="#C62DED"/>
<path d="M378.978 500.103H296.318V507.779H378.978V500.103Z" fill="#C62DED"/>
<path d="M440.387 526.657H296.318V534.334H440.387V526.657Z" fill="#E6E6E6"/>
<path d="M440.246 553.212H296.318V560.888H440.246V553.212Z" fill="#E6E6E6"/>
<path d="M279.187 500.217H217.778V561.626H279.187V500.217Z" fill="#C62DED"/>
</g>
<defs>
<clipPath id="clip0">
<rect width="704" height="740" fill="white"/>
</clipPath>
</defs>
</svg>
